<?xml version="1.0" encoding="UTF-8"?>
<!-- Generator: Adobe Illustrator 16.0.0, SVG Export Plug-In . SVG Version: 6.00 Build 0)  -->
<!DOCTYPE svg PUBLIC "-//W3C//DTD SVG 1.1//EN" "http://www.w3.org/Graphics/SVG/1.1/DTD/svg11.dtd">
<svg version="1.1" id="Layer_1" xmlns="http://www.w3.org/2000/svg" xmlns:xlink="http://www.w3.org/1999/xlink" x="0px" y="0px" width="800px" height="621px" viewBox="0 0 800 621" enable-background="new 0 0 800 621" xml:space="preserve">
<g>
	<g>
		<path fill="#FFFFFF" d="M731.063,617.991c-30.419-0.001-65.383-15.535-98.451-43.74c-7.743-6.605-14.963-13.149-21.944-19.479    c-22.374-20.281-43.508-39.438-74.306-53.047c-34.133-15.082-77.099-22.106-135.217-22.106s-101.084,7.024-135.217,22.106    c-30.799,13.609-51.933,32.767-74.307,53.049c-6.981,6.328-14.2,12.872-21.943,19.477c-33.069,28.206-68.033,43.74-98.45,43.74    c-15.797,0-29.746-4.154-40.34-12.014c-25.219-18.71-32.973-79.61-23.706-186.182c8.37-96.269,60.562-247.87,70.308-268.787    c7.837-16.822,14.449-24.82,15.988-26.564c0.538-3.612,2.625-16.567,5.277-19.22c0.182-0.181,19.233-18.395,59.102-28.42    c17.172-4.318,32.105-5.224,41.608-5.224c13.387,0,25.937,1.899,27.404,4.146c2.549,3.904,8.109,11.016,12.786,12.91    c7.916,3.205,14.23,6.598,24.693,12.22c5.959,3.202,13.376,7.187,23.141,12.228c19.048,9.831,43.751,15.521,113.656,15.521    c69.905,0,94.608-5.691,113.656-15.521c15.282-7.888,24.845-12.115,32.528-15.512c5.689-2.515,10.183-4.501,15.163-7.157    c3.578-1.909,11.046-11.806,12.929-14.688c1.467-2.248,14.018-4.146,27.405-4.146c9.504,0,24.438,0.906,41.61,5.224    c39.865,10.025,58.917,28.239,59.099,28.42c2.653,2.653,4.742,15.608,5.279,19.22c1.538,1.744,8.15,9.742,15.986,26.564    c9.745,20.914,61.937,172.505,70.31,268.787c9.266,106.571,1.511,167.472-23.708,186.182    c-10.593,7.858-24.543,12.014-40.337,12.014C731.065,617.991,731.065,617.991,731.063,617.991z"/>
		<path fill="#B2B2B1" d="M602.827,73.081c11.376,0,25.667,1.262,41.244,5.179c36.583,9.2,55.837,25.459,58.404,28.026    c2.569,2.568,4.922,18.827,4.922,18.827s7.274,7.702,16.045,26.529c8.772,18.827,61.616,169.87,70.175,268.284    c8.557,98.415,3.42,165.166-23.107,184.847c-9.909,7.353-23.398,11.719-39.446,11.719c-26.914,0-61.022-12.287-97.478-43.382    c-58.193-49.635-85.773-94.99-232.44-94.99c-146.666,0-174.248,45.355-232.441,94.99c-36.459,31.098-70.562,43.382-97.477,43.382    c-16.044,0-29.538-4.368-39.446-11.719C5.253,585.092,0.118,518.341,8.676,419.926c8.557-98.414,61.402-249.457,70.173-268.284    c8.771-18.827,16.046-26.529,16.046-26.529s2.353-16.259,4.92-18.827c2.567-2.567,21.822-18.827,58.407-28.026    c15.579-3.917,29.866-5.179,41.243-5.179c15.338,0,25.383,2.294,26.148,3.467c1.766,2.705,7.846,11.199,13.479,13.479    c12.416,5.027,21.181,10.696,47.709,24.39c26.529,13.691,64.184,15.688,114.344,15.688c50.163,0,87.815-1.997,114.344-15.688    c26.529-13.694,35.89-16.375,47.71-22.678c4.011-2.14,11.712-12.487,13.479-15.191C577.443,75.375,587.485,73.081,602.827,73.081     M602.827,70.081c-8.804,0-15.198,0.724-19.013,1.331c-8.221,1.309-9.149,2.731-9.648,3.496    c-2.321,3.553-9.406,12.598-12.379,14.184c-4.931,2.63-9.402,4.606-15.063,7.109c-7.702,3.404-17.288,7.641-32.61,15.551    c-24.883,12.842-60.264,15.354-112.968,15.354s-88.085-2.512-112.969-15.354c-9.753-5.035-17.164-9.017-23.119-12.216    c-10.507-5.646-16.849-9.053-24.84-12.289c-4.342-1.758-9.809-8.84-12.093-12.338c-0.5-0.765-1.428-2.188-9.65-3.496    c-3.814-0.607-10.209-1.331-19.01-1.331c-9.588,0-24.653,0.914-41.974,5.269c-33.951,8.538-54.676,23.695-59.796,28.814    c-2.721,2.722-4.657,13.094-5.637,19.63c-2.032,2.379-8.457,10.546-15.927,26.581c-4.463,9.58-20.085,52.766-35.327,104.72    c-13.49,45.983-30.533,111.862-35.116,164.571c-4.509,51.858-5.032,91.943-1.597,122.543c3.77,33.586,12.243,54.838,25.904,64.973    c10.854,8.053,25.113,12.31,41.233,12.31c14.639,0,30.227-3.454,46.329-10.267c17.681-7.479,35.544-18.863,53.095-33.833    c7.76-6.619,14.988-13.17,21.978-19.506c22.282-20.198,43.328-39.276,73.905-52.788c33.936-14.994,76.709-21.979,134.611-21.979    s100.676,6.983,134.61,21.979c30.577,13.511,51.623,32.589,73.904,52.786c6.99,6.337,14.218,12.889,21.979,19.508    c17.55,14.969,35.413,26.352,53.096,33.832c16.104,6.812,31.691,10.268,46.329,10.268c16.121,0,30.38-4.257,41.233-12.31    c13.661-10.135,22.134-31.388,25.904-64.973c3.436-30.601,2.913-70.686-1.595-122.543c-4.585-52.71-21.628-118.588-35.118-164.571    c-15.242-51.958-30.864-95.143-35.326-104.72c-7.471-16.036-13.896-24.203-15.927-26.581c-0.979-6.537-2.917-16.909-5.639-19.63    c-5.121-5.12-25.845-20.277-59.794-28.814C627.481,70.995,612.415,70.081,602.827,70.081L602.827,70.081z"/>
	</g>
	
		<circle fill="#FFFFFF" stroke="#E8E8E8" stroke-width="3" stroke-linejoin="round" stroke-miterlimit="10" cx="276.533" cy="360.879" r="87.574"/>
	
		<circle fill="#171617" stroke="#010101" stroke-width="2" stroke-linejoin="round" stroke-miterlimit="10" cx="276.533" cy="361.306" r="65.895"/>
	<path fill="#FFFFFF" stroke="#E8E8E8" stroke-width="3" stroke-linejoin="round" stroke-miterlimit="10" d="M596.59,366.013   c0,44.902-36.397,81.297-81.296,81.297c-44.899,0-81.3-36.395-81.3-81.297c0-44.901,36.4-81.298,81.3-81.298   C560.192,284.714,596.59,321.111,596.59,366.013z"/>
	
		<circle fill="#171617" stroke="#010101" stroke-width="2" stroke-linejoin="round" stroke-miterlimit="10" cx="515.293" cy="366.013" r="54.771"/>
	
		<circle fill="#FFFFFF" stroke="#E8E8E8" stroke-width="3" stroke-linejoin="round" stroke-miterlimit="10" cx="159.292" cy="219.105" r="81.298"/>
	
		<circle fill="#171617" stroke="#010101" stroke-width="2" stroke-linejoin="round" stroke-miterlimit="10" cx="159.292" cy="219.105" r="54.77"/>
	<path fill="#272827" stroke="#010101" stroke-width="2" stroke-linejoin="round" stroke-miterlimit="10" d="M312.516,384.825   c9.183-0.983,18.773-1.616,26.157-2.012c2.424-6.864,3.754-14.242,3.754-21.936c0-6.36-0.919-12.502-2.601-18.322   c-7.521-0.389-17.644-1.038-27.311-2.07c-18.688-2-15.976-28.386-15.548-41.948c0.004-0.107,0.021-0.193,0.027-0.297   c-6.442-2.103-13.314-3.255-20.461-3.255c-7.492,0-14.684,1.267-21.395,3.57c0.433,13.568,3.131,39.933-15.545,41.931   c-9.257,0.985-18.929,1.626-26.339,2.016c-1.691,5.837-2.616,11.997-2.616,18.377c0,7.713,1.337,15.11,3.772,21.989   c7.242,0.395,16.4,1.019,25.182,1.958c17.177,1.836,16.271,24.273,15.682,38.424c6.671,2.271,13.817,3.523,21.258,3.523   c7.09,0,13.913-1.133,20.313-3.206C296.255,409.44,295.208,386.675,312.516,384.825z"/>
	<path fill="#FFFFFF" stroke="#E8E8E8" stroke-width="3" stroke-linejoin="round" stroke-miterlimit="10" d="M333.869,225.024   c0,8.625-6.994,15.618-15.618,15.618h-7.702c-8.624,0-15.618-6.993-15.618-15.618l0,0c0-8.624,6.994-15.616,15.618-15.616h7.702   C326.875,209.408,333.869,216.4,333.869,225.024L333.869,225.024z"/>
	<path fill="#FFFFFF" stroke="#E8E8E8" stroke-width="3" stroke-linejoin="round" stroke-miterlimit="10" d="M507.446,225.024   c0,8.625-6.99,15.618-15.617,15.618h-7.701c-8.625,0-15.618-6.993-15.618-15.618l0,0c0-8.624,6.993-15.616,15.618-15.616h7.701   C500.456,209.408,507.446,216.4,507.446,225.024L507.446,225.024z"/>
	
		<circle fill="#FFFFFF" stroke="#E8E8E8" stroke-width="3" stroke-linejoin="round" stroke-miterlimit="10" cx="574.769" cy="220.959" r="27.813"/>
	
		<circle fill="#FFFFFF" stroke="#E8E8E8" stroke-width="3" stroke-linejoin="round" stroke-miterlimit="10" cx="700.841" cy="220.959" r="27.813"/>
	
		<circle fill="#FFFFFF" stroke="#E8E8E8" stroke-width="3" stroke-linejoin="round" stroke-miterlimit="10" cx="637.806" cy="157.923" r="27.812"/>
	
		<circle fill="#FFFFFF" stroke="#E8E8E8" stroke-width="3" stroke-linejoin="round" stroke-miterlimit="10" cx="637.806" cy="283.996" r="27.812"/>
	
		<circle fill="#FFFFFF" stroke="#E8E8E8" stroke-width="3" stroke-linejoin="round" stroke-miterlimit="10" cx="401.147" cy="225.024" r="51.776"/>
</g>
</svg>